<svg xmlns="http://www.w3.org/2000/svg" width="1000" height="1000"><circle cx="500" cy="500" r="500" fill="#2692ba"/><path d="M765.87 230.53c-3.9-22.76-12.26-51.57-70.23-73.82-43.75-16.8-126.36-35.97-195.64-35.97s-151.9 19.18-195.64 36c-58 22.25-66.34 51.06-70.23 73.82-9.25 54.1-28.34 217.72-28.34 217.72v304.47h49.37v51c0 23.5 19.05 40.55 42.55 40.55s42.55-17.05 42.55-40.55v-51h319.5v51c0 23.5 19.05 40.55 42.55 40.55s42.55-17.05 42.55-40.55v-51h49.37V448.26c-.02 0-19.1-163.62-28.36-217.73zM376.48 176h247.05c9.45 0 17.12 8.17 17.12 18.25s-7.66 18.25-17.12 18.25H376.48c-9.45 0-17.12-8.17-17.12-18.25S367.02 176 376.48 176zm-78.64 482.37c-23 0-41.6-18.63-41.6-41.6 0-23 18.63-41.6 41.6-41.6 23 0 41.6 18.63 41.6 41.6.01 23-18.62 41.6-41.6 41.6zm404.32 0c-23 0-41.6-18.63-41.6-41.6 0-23 18.63-41.6 41.6-41.6 23 0 41.6 18.63 41.6 41.6s-18.63 41.6-41.6 41.6zm21-185.64H276.86c-13.89 0-24.58-12.26-22.7-26l23.54-169.32c2.64-19.47 14.85-29.7 29.67-29.7h385.24c14.82 0 27.02 10.22 29.67 29.7l23.54 169.32c1.9 13.76-8.8 26-22.7 26z" fill="#fff"/></svg>