<svg version="1.1" id="Layer_1" xmlns="http://www.w3.org/2000/svg" xmlns:xlink="http://www.w3.org/1999/xlink" x="0px" y="0px"
	 width="100%" viewBox="0 0 225 225" enable-background="new 0 0 225 225" xml:space="preserve">
<path fill="#000000" opacity="1.000000" stroke="none" 
	d="
M226.000000,143.000000 
	C226.000000,170.638687 226.000000,198.277390 226.000000,225.958038 
	C151.103836,225.958038 76.207626,225.958038 1.000000,225.958038 
	C1.000000,184.646286 1.000000,143.291809 1.425569,101.484779 
	C6.591512,102.015160 8.030212,99.495064 7.932374,95.318588 
	C7.890223,93.519287 7.889984,91.719002 8.095261,89.574997 
	C10.513985,89.183990 12.708155,89.137138 14.777908,89.456978 
	C10.519241,100.068344 13.003384,110.624710 13.000219,121.402023 
	C12.264183,123.840263 11.709780,125.948952 11.090576,128.508850 
	C11.608850,133.289291 12.191924,137.618500 12.864155,142.313507 
	C14.871529,146.744522 18.559097,147.966019 22.525078,147.914429 
	C33.728256,147.768707 44.927422,147.314316 56.440041,146.983902 
	C57.167992,146.990738 57.584064,146.995209 58.187019,147.290802 
	C64.532051,153.896027 71.839661,154.074219 77.207947,147.917023 
	C77.657005,147.580597 77.764282,147.306396 77.736786,146.823624 
	C77.748238,146.672256 77.770973,146.369522 78.129120,146.484406 
	C78.974960,146.672394 79.462669,146.745529 80.381699,146.886200 
	C82.555260,146.903198 84.297493,146.852661 86.500183,146.879852 
	C93.092567,146.968719 99.226814,146.880783 105.355667,147.023651 
	C109.924065,147.130142 114.485504,147.535141 119.363983,147.876343 
	C120.101509,147.899216 120.525085,147.852982 121.380150,147.886536 
	C123.884117,147.641235 125.953873,147.057999 128.029556,147.036072 
	C136.678101,146.944656 145.328415,147.022171 154.164398,147.380661 
	C155.642395,147.785400 156.934067,147.847183 158.487457,147.861252 
	C159.184616,147.480011 159.620087,147.146500 160.305206,147.037186 
	C163.380966,153.785324 169.275620,151.907547 174.226929,151.959656 
	C177.894501,151.998260 180.116562,149.454971 181.152069,146.023743 
	C181.811493,146.442261 182.259354,146.692383 183.194031,146.957977 
	C191.332901,146.977585 199.056824,146.334381 206.616241,147.173401 
	C213.751160,147.965286 220.199692,148.221207 225.400726,142.388779 
	C225.600479,142.592529 225.800232,142.796265 226.000000,143.000000 
z"/>
<path fill="#000000" opacity="1.000000" stroke="none" 
	d="
M1.000000,85.000000 
	C1.000000,57.031677 1.000000,29.063353 1.000000,1.047514 
	C75.883453,1.047514 150.766937,1.047514 226.000000,1.047514 
	C226.000000,26.686504 226.000000,52.374592 225.774292,78.869362 
	C223.332230,78.160522 221.115860,76.645004 218.680817,75.060959 
	C218.462128,74.992432 218.013565,74.898346 218.013916,74.931557 
	C218.014252,74.964767 218.079147,74.950600 217.992004,74.706009 
	C217.567657,74.629578 217.230469,74.797745 216.669800,74.999603 
	C216.446335,75.033295 216.017303,75.175552 215.559662,75.102310 
	C211.401062,75.077805 207.700119,75.126549 203.780289,75.104050 
	C203.561401,75.032799 203.106094,74.964539 203.011688,74.717834 
	C202.576111,74.635658 202.234924,74.800194 201.670074,74.998787 
	C201.446442,75.032852 201.017014,75.175323 200.591400,75.102158 
	C198.443481,75.077774 196.721207,75.126556 194.780090,75.104073 
	C194.561279,75.032806 194.106094,74.964539 194.011688,74.717834 
	C193.576111,74.635658 193.234909,74.800186 192.670013,74.998779 
	C192.446304,75.032837 192.016739,75.175293 191.565659,75.102150 
	C188.074387,75.078682 185.034180,75.128365 181.775757,75.106628 
	C181.557510,75.035210 181.103394,74.966721 181.009857,74.720078 
	C180.576355,74.637917 180.236389,74.802391 179.673355,75.001060 
	C179.450287,75.035248 179.022125,75.178047 178.570923,75.104637 
	C175.087357,75.075020 172.055008,75.118805 168.559296,75.091415 
	C161.398834,75.344505 154.704147,75.738434 148.003845,75.970116 
	C143.003189,76.143021 137.995285,76.106316 132.532440,76.094810 
	C128.049240,76.076210 124.024223,76.125755 119.780304,76.104050 
	C119.561401,76.032799 119.106079,75.964531 119.011688,75.717819 
	C118.576103,75.635635 118.234917,75.800171 117.670044,75.998779 
	C117.446365,76.032845 117.016861,76.175316 116.582390,76.102135 
	C114.098297,76.077744 112.048676,76.126541 109.780197,76.104065 
	C109.561333,76.032806 109.106079,75.964531 109.011688,75.717819 
	C108.576103,75.635635 108.234917,75.800171 107.670029,75.998772 
	C107.446320,76.032837 107.016747,76.175285 106.559143,76.102127 
	C102.400764,76.077744 98.699989,76.126518 94.743530,76.087723 
	C94.319946,75.934853 94.152023,75.869560 93.755875,75.441879 
	C85.123726,75.053009 76.719421,74.978249 68.316231,75.044945 
	C66.821419,75.056816 65.331261,75.656151 63.405090,75.988419 
	C53.596008,76.326302 44.216484,77.001335 34.846981,76.883018 
	C27.666748,76.792343 22.203535,79.333603 17.490520,84.953293 
	C11.685349,84.992676 6.342674,84.996338 1.000000,85.000000 
z"/>
<path fill="#4E99D1" opacity="1.000000" stroke="none" 
	d="
M226.000000,142.562500 
	C225.800232,142.796265 225.600479,142.592529 225.400726,142.388779 
	C220.199692,148.221207 213.751160,147.965286 206.616241,147.173401 
	C199.056824,146.334381 191.332901,146.977585 183.209259,146.510559 
	C182.887985,144.732712 183.136536,143.420319 183.171692,142.102249 
	C183.332703,136.063171 179.660263,130.782272 174.261230,129.191391 
	C168.530258,127.502693 163.389496,129.515945 159.787949,134.914749 
	C159.825272,134.955414 159.906265,134.880402 159.601776,135.064240 
	C158.940125,139.468369 158.582947,143.688675 158.225754,147.908981 
	C156.934067,147.847183 155.642395,147.785400 154.146454,146.910370 
	C153.928024,140.463913 153.867599,134.830276 153.918793,129.197647 
	C153.945038,126.309540 152.744293,124.961456 149.769714,124.987442 
	C141.651825,125.058365 133.532150,125.072784 125.414764,124.976242 
	C122.241196,124.938492 120.937408,126.249313 120.983955,129.417114 
	C121.074005,135.545486 120.971405,141.676712 120.948662,147.806747 
	C120.525085,147.852982 120.101509,147.899216 119.344742,147.420685 
	C119.002167,141.073929 118.911484,135.250473 119.015701,129.430511 
	C119.072701,126.247063 117.755241,124.936661 114.568916,124.975235 
	C106.585625,125.071877 98.598640,125.101738 90.616676,124.959724 
	C87.039452,124.896088 85.991135,126.580025 86.050552,129.836060 
	C86.153717,135.489456 86.054237,141.146576 86.039726,146.802124 
	C84.297493,146.852661 82.555260,146.903198 80.426971,146.505676 
	C81.466263,138.648727 79.669189,133.644760 74.457047,130.509384 
	C70.090324,127.882584 63.921978,128.236145 59.971855,131.339661 
	C55.319019,134.995285 54.003174,140.350128 56.128166,146.981537 
	C44.927422,147.314316 33.728256,147.768707 22.525078,147.914429 
	C18.559097,147.966019 14.871529,146.744522 12.937875,141.925385 
	C17.387236,139.423019 17.254345,135.676910 16.984770,131.858505 
	C16.916676,130.893951 16.929146,129.923737 17.356541,128.942688 
	C28.602051,128.966019 38.975067,127.252380 46.374020,118.582672 
	C50.876297,113.307129 55.902191,110.911461 62.766888,110.926300 
	C117.177727,111.043915 171.588913,110.996628 226.000000,111.000000 
	C226.000000,115.356903 226.000000,119.713799 225.560257,124.499657 
	C223.043213,124.928612 220.965912,124.928612 218.780518,124.928612 
	C218.780518,128.979263 218.780518,132.356430 218.780518,136.000000 
	C221.427872,136.000000 223.713928,136.000000 226.000000,136.000000 
	C226.000000,138.041672 226.000000,140.083328 226.000000,142.562500 
z"/>
</svg>